Coordinates
version=1
nRows=7
nColumns=63
inDegrees=yes

Units are S.I. units (second, meters, Newtons, ...)
If the header above contains a line with 'inDegrees', this indicates whether rotational values are in degrees (yes) or radians (no).

endheader
time	pelvis_tilt	pelvis_list	pelvis_rotation	pelvis_tx	pelvis_ty	pelvis_tz	hip_flexion_r	hip_adduction_r	hip_rotation_r	knee_angle_r	knee_angle_r_beta	ankle_angle_r	subtalar_angle_r	mtp_angle_r	hip_flexion_l	hip_adduction_l	hip_rotation_l	knee_angle_l	knee_angle_l_beta	ankle_angle_l	subtalar_angle_l	mtp_angle_l	L5_S1_Flex_Ext	L5_S1_Lat_Bending	L5_S1_axial_rotation	L4_L5_Flex_Ext	L4_L5_Lat_Bending	L4_L5_axial_rotation	L3_L4_Flex_Ext	L3_L4_Lat_Bending	L3_L4_axial_rotation	L2_L3_Flex_Ext	L2_L3_Lat_Bending	L2_L3_axial_rotation	L1_L2_Flex_Ext	L1_L2_Lat_Bending	L1_L2_axial_rotation	L1_T12_Flex_Ext	L1_T12_Lat_Bending	L1_T12_axial_rotation	Abs_r3	Abs_r2	Abs_r1	Abs_t1	Abs_t2	neck_flexion	neck_bending	neck_rotation	arm_flex_r	arm_add_r	arm_rot_r	elbow_flex_r	pro_sup_r	wrist_flex_r	wrist_dev_r	arm_flex_l	arm_add_l	arm_rot_l	elbow_flex_l	pro_sup_l	wrist_flex_l	wrist_dev_l
      5.01694915	     -2.95771957	     -1.60699471	     88.71968926	      0.23636964	      0.83168999	      0.73218682	      3.50031166	     -1.30303448	    -12.01185870	      8.52407985	      0.14877326	     35.68875408	     14.99900459	      0.00000000	      7.54215232	      1.06389803	     -2.04155233	     13.70295436	      0.23916167	     39.55705882	      2.32287187	      0.00000000	     -0.01396766	      0.45341181	      1.27652376	     -0.02593934	      0.60303771	      1.35630650	     -0.02294747	      1.10242548	      1.35630650	     -0.01596364	      1.10242548	      1.11695829	     -0.01297037	      0.92459737	      1.03717556	     -0.00798112	      0.70233490	      0.95739282	     -0.09976961	      5.12908509	      7.09964222	      0.00000000	      0.00000000	     28.35988980	      2.01190936	     11.27451821	     -1.11169920	    -17.63824743	     97.81670513	     11.00178524	      2.99186103	     -5.83933023	     -9.19472876	      6.44246467	     -7.05321546	    172.52147493	      5.09148795	      7.79674351	    -11.77293019	     -0.15320389
      5.03389831	     -2.92154887	     -1.62334802	     88.84805446	      0.23638731	      0.83189161	      0.73171739	      3.39932267	     -1.17739861	    -11.15252267	      8.27968533	      0.14450777	     35.32732538	     13.79310714	      0.00000000	      7.57094952	      0.93869935	     -2.74487354	     13.74510558	      0.23989735	     39.85929600	      3.35104128	      0.00000000	     -0.01097924	      0.45730534	      1.25129084	     -0.02038954	      0.60821610	      1.32949652	     -0.01803779	      1.11189220	      1.32949652	     -0.01254817	      1.11189220	      1.09487948	     -0.01019532	      0.93253705	      1.01667381	     -0.00627354	      0.70836597	      0.93846813	     -0.07842360	      5.17312945	      6.95930426	      0.00000000	      0.00000000	     28.35846281	      2.21079443	     11.37833377	     -1.11506697	    -17.60533229	     98.19615413	     10.92563234	      2.89792309	     -5.84201572	     -9.30690806	      6.39127420	     -7.05199113	    172.52867917	      5.00516903	      9.01785546	    -12.03834708	     -0.18494751
      5.05084746	     -2.94588385	     -1.66438251	     89.06931238	      0.23624600	      0.83208539	      0.73146215	      3.37313168	     -1.21190358	    -11.43358509	      8.15082622	      0.14225875	     35.12886321	     13.91771838	      0.00000000	      7.55037627	      1.08125902	     -1.76123512	     13.57821332	      0.23698453	     39.66034135	      2.29477768	      0.00000000	     -0.01385215	      0.45510398	      1.20563464	     -0.02572482	      0.60528830	      1.28098681	     -0.02275769	      1.10653983	      1.28098681	     -0.01583162	      1.10653983	      1.05493031	     -0.01286310	      0.92804805	      0.97957815	     -0.00791512	      0.70495607	      0.90422598	     -0.09894449	      5.14822730	      6.70537818	      0.00000000	      0.00000000	     28.35379817	      2.50204977	     11.69606088	     -1.09415856	    -17.56197773	     97.93318948	     10.92106159	      3.05643108	     -5.89659930	     -9.51005095	      6.45912634	     -6.94990340	    176.54151985	      4.71835367	      7.78971938	    -11.77251034	     -0.02645596
      5.06779661	     -2.78150887	     -1.73535293	     89.39671879	      0.23624296	      0.83224112	      0.73105474	      3.16282421	     -0.88652459	    -10.20274154	      7.53234053	      0.13146414	     34.41184237	     12.11103657	      0.00000000	      7.71623733	      0.75145057	     -2.93246082	     13.83822599	      0.24152261	     40.12610925	      4.21499365	      0.00000000	     -0.00746399	      0.47017138	      1.12553308	     -0.01386137	      0.62532794	      1.19587890	     -0.01226258	      1.14317469	      1.19587890	     -0.00853059	      1.14317469	      0.98484144	     -0.00693106	      0.95877348	      0.91449563	     -0.00426492	      0.72829547	      0.84414981	     -0.05331451	      5.31867268	      6.25987733	      0.00000000	      0.00000000	     28.35015491	      2.85278894	     12.04678160	     -0.98245340	    -17.51200241	     98.41743328	     10.85991769	      3.10306834	     -6.00219728	     -9.69980685	      6.57514813	     -7.08638168	    174.12309680	      5.15792055	      8.10923587	    -11.32495989	     -0.61997338
      5.08474576	     -2.67907798	     -1.77108398	     89.58191248	      0.23619399	      0.83248155	      0.73035432	      2.89845524	     -0.59978114	     -7.96327328	      6.85405530	      0.11962583	     33.58863440	      9.20161768	      0.00000000	      7.62017800	      0.75334886	     -1.99071744	     13.65248285	      0.23828078	     39.88735527	      3.20370875	      0.00000000	      0.00410410	      0.48151504	      1.07249522	      0.00762173	      0.64041500	      1.13952617	      0.00674263	      1.17075566	      1.13952617	      0.00469058	      1.17075566	      0.93843332	      0.00381107	      0.98190546	      0.87140237	      0.00234508	      0.74586679	      0.80437141	      0.02931518	      5.44699438	      5.96489666	      0.00000000	      0.00000000	     28.34553152	      3.08891262	     12.39853041	     -0.91518588	    -17.48381760	     99.01426597	     10.80627640	      3.07475780	     -6.05122211	     -9.85449474	      6.71046299	     -7.03577171	    176.38190556	      5.32052305	      6.88200676	    -10.74006521	     -0.83508965
      5.10169492	     -2.54668977	     -1.80010657	     89.71488835	      0.23611583	      0.83265785	      0.72975361	      2.74346214	     -0.39002436	     -6.92554368	      6.44691195	      0.11251984	     33.15868361	      7.86242946	      0.00000000	      7.58184656	      0.62535355	     -1.97926709	     13.63037895	      0.23789499	     39.85597241	      3.33428458	      0.00000000	      0.01991468	      0.49737395	      1.02699528	      0.03698355	      0.66150736	      1.09118249	      0.03271783	      1.20931503	      1.09118249	      0.02276049	      1.20931503	      0.89862087	      0.01849277	      1.01424497	      0.83443367	      0.01137925	      0.77043225	      0.77024646	      0.14224856	      5.62639364	      5.71183966	      0.00000000	      0.00000000	     28.34304539	      3.12103763	     12.54690481	     -0.82071924	    -17.45569800	    100.04664680	     10.68976263	      2.94229473	     -6.08342903	    -10.00288048	      6.87038127	     -6.99841138	    177.10603316	      5.63077779	      6.70540184	    -10.22173787	     -1.11910361
      5.11864407	     -2.35532888	     -1.75665224	     90.09844078	      0.23555661	      0.83288618	      0.72908937	      2.38438477	     -0.07886913	     -5.05849992	      5.82321463	      0.10163427	     32.56165016	      5.16750175	      0.00000000	      7.48190812	      0.53722171	     -1.11173958	     13.59136107	      0.23721400	     39.70166706	      2.71977887	      0.00000000	      0.03184841	      0.52184419	      0.94292568	      0.05914567	      0.69405277	      1.00185854	      0.05232375	      1.26881196	      1.00185854	      0.03639954	      1.26881196	      0.82505997	      0.02957443	      1.06414467	      0.76612712	      0.01819818	      0.80833665	      0.70719426	      0.22748998	      5.90320584	      5.24426976	      0.00000000	      0.00000000	     28.33849329	      3.04172794	     12.63543217	     -0.80847531	    -17.49009206	    100.39819524	     10.67753828	      3.06618131	     -6.13069708	    -10.14162906	      6.99462858	     -6.86628741	    178.79802805	      5.77631593	      6.56133076	     -9.75846858	     -1.22814586
